<svg width="104" height="41" viewBox="0 0 104 41" fill="none" xmlns="http://www.w3.org/2000/svg">
<path fill-rule="evenodd" clip-rule="evenodd" d="M8.423 26.3994C6.86133 23.5177 5.3163 20.55 3.78786 17.4962H3.223C3.04579 19.2167 2.83536 21.0285 2.59169 22.9317C2.34803 24.8349 2.08222 26.765 1.79425 28.722C1.50628 30.679 1.20724 32.6252 0.897125 34.5607C0.587006 36.4962 0.287967 38.3349 0 40.0769C0.354421 40.0338 0.742064 40.0123 1.16294 40.0123C1.58381 40.0123 1.97146 40.0338 2.32588 40.0769C2.32588 39.2166 2.38126 38.1145 2.49201 36.7704C2.60277 35.4263 2.73568 33.9962 2.89073 32.4801C3.04579 30.9639 3.21746 29.4263 3.40575 27.8672C3.59404 26.308 3.76571 24.8618 3.92077 23.5285H3.98722C5.44921 26.3672 6.90564 29.1467 8.35655 31.8672C9.80746 34.5876 11.1974 37.3027 12.5265 40.0123H12.8256C14.1546 37.0876 15.5557 34.2866 17.0288 31.6091C18.5018 28.9317 20.0025 26.2382 21.531 23.5285H21.5974C21.9519 26.3242 22.2509 29.0661 22.4946 31.7543C22.7382 34.4425 22.9819 37.2166 23.2256 40.0769C23.4914 40.0338 23.7516 40.0123 24.0064 40.0123H25.5681C25.8228 40.0123 26.0831 40.0338 26.3489 40.0769C26.0831 38.2919 25.8394 36.4908 25.6179 34.6736C25.3964 32.8564 25.1749 31.0177 24.9534 29.1575C24.7318 27.2973 24.5159 25.4048 24.3054 23.4801C24.095 21.5553 23.8679 19.5607 23.6243 17.4962H23.1923C22.6385 18.4855 22.0405 19.55 21.3981 20.6898C20.7557 21.8296 20.1078 22.9908 19.4543 24.1736C18.8008 25.3564 18.1585 26.5231 17.5272 27.6736C16.8958 28.8242 16.3033 29.8941 15.7495 30.8833C15.1957 31.8726 14.7084 32.7489 14.2875 33.5123C13.8667 34.2758 13.5455 34.8618 13.324 35.2704C11.6183 32.2381 9.98467 29.2812 8.423 26.3994ZM31.1169 22.093C31.1723 23.4586 31.2 24.851 31.2 26.2704V31.8188C31.2 33.2382 31.1723 34.636 31.1169 36.0123C31.0616 37.3887 31.0006 38.7435 30.9342 40.0769C31.4437 40.0339 31.9864 40.0123 32.5623 40.0123C33.1382 40.0123 33.6809 40.0339 34.1904 40.0769C34.124 38.7435 34.063 37.3887 34.0077 36.0123C33.9523 34.636 33.9246 33.2382 33.9246 31.8188V26.2704C33.9246 24.851 33.9523 23.4586 34.0077 22.093C34.063 20.7274 34.124 19.3349 34.1904 17.9156C33.9024 17.9586 33.6256 17.9962 33.3597 18.0285C33.0939 18.0607 32.8281 18.0769 32.5623 18.0769C32.2965 18.0769 32.0307 18.0607 31.7649 18.0285C31.499 17.9962 31.2222 17.9586 30.9342 17.9156C31.0006 19.3349 31.0616 20.7274 31.1169 22.093ZM59.1438 40.4962C56.5964 37.636 53.8829 34.7059 51.0032 31.7059C48.1235 28.7059 45.2439 25.722 42.3642 22.7543C42.3421 23.3564 42.3199 24.1629 42.2978 25.1736C42.2756 26.1844 42.2645 27.5607 42.2645 29.3027C42.2645 29.7543 42.2701 30.3134 42.2812 30.9801C42.2922 31.6468 42.3033 32.3457 42.3144 33.0769C42.3255 33.808 42.3421 34.55 42.3642 35.3027C42.3864 36.0554 42.4085 36.7543 42.4307 37.3994C42.4528 38.0446 42.475 38.6091 42.4971 39.093C42.5193 39.5769 42.5414 39.9048 42.5636 40.0769C42.2092 40.0338 41.8215 40.0123 41.4006 40.0123C40.9576 40.0123 40.5478 40.0338 40.1712 40.0769C40.2155 39.8618 40.2654 39.464 40.3208 38.8833C40.3761 38.3027 40.426 37.6091 40.4703 36.8027C40.5146 35.9962 40.5644 35.1199 40.6198 34.1736C40.6752 33.2274 40.7195 32.2812 40.7527 31.3349C40.7859 30.3887 40.8136 29.464 40.8358 28.5607C40.8579 27.6575 40.869 26.8511 40.869 26.1414C40.869 24.0769 40.8635 22.3027 40.8524 20.8188C40.8413 19.3349 40.8136 18.2274 40.7693 17.4962H41.301C42.6522 18.9156 44.0975 20.4371 45.6371 22.0607C47.1766 23.6844 48.705 25.2865 50.2224 26.8672C51.7397 28.4478 53.1795 29.9424 54.5419 31.3511C55.9042 32.7597 57.0948 33.9586 58.1137 34.9478V30.5607C58.1137 28.3027 58.0971 26.1038 58.0639 23.964C58.0307 21.8242 57.9587 19.8081 57.8479 17.9156C58.291 18.0231 58.6675 18.0769 58.9776 18.0769C59.2435 18.0769 59.5979 18.0231 60.0409 17.9156C59.9966 18.3887 59.9468 19.0984 59.8914 20.0446C59.836 20.9908 59.7806 22.0016 59.7252 23.0769C59.6699 24.1521 59.62 25.2059 59.5757 26.2382C59.5314 27.2704 59.5093 28.0984 59.5093 28.722V30.6575C59.5093 31.3887 59.5148 32.1521 59.5259 32.9478L59.5591 35.3511C59.5702 36.1575 59.5813 36.9102 59.5923 37.6091C59.6034 38.308 59.6089 38.9156 59.6089 39.4317V40.4962H59.1438ZM66.2045 22.093C66.2599 23.4586 66.2875 24.851 66.2875 26.2704V31.8188C66.2875 33.2382 66.2599 34.636 66.2045 36.0123C66.1491 37.3887 66.0882 38.7435 66.0217 40.0769C66.7749 40.0339 67.5169 40.0123 68.2479 40.0123H70.4741C71.2273 40.0123 71.9693 40.0231 72.7003 40.0446C73.4313 40.0661 74.1734 40.0769 74.9265 40.0769C76.2335 40.0769 77.6013 39.8887 79.03 39.5123C80.4588 39.136 81.7657 38.4962 82.9508 37.593C84.1359 36.6898 85.1105 35.5016 85.8748 34.0285C86.639 32.5553 87.0211 30.7435 87.0211 28.593C87.0211 26.9371 86.8162 25.4478 86.4064 24.1252C85.9966 22.8027 85.3487 21.6844 84.4626 20.7704C83.5766 19.8564 82.4413 19.1521 81.0569 18.6575C79.6724 18.1629 78.0056 17.9156 76.0562 17.9156C75.2145 17.9156 74.3783 17.9425 73.5476 17.9962C72.7169 18.05 71.8807 18.0769 71.039 18.0769C70.1972 18.0769 69.361 18.0607 68.5304 18.0285C67.6997 17.9962 66.8635 17.9586 66.0217 17.9156C66.0882 19.3349 66.1491 20.7274 66.2045 22.093ZM69.2115 38.6575C69.6767 38.765 70.308 38.8457 71.1054 38.8994C71.9029 38.9532 72.7225 38.9801 73.5642 38.9801C74.7825 38.9801 76.0008 38.8403 77.2192 38.5607C78.4375 38.2812 79.5284 37.7543 80.492 36.9801C81.4556 36.2059 82.242 35.1468 82.8511 33.8027C83.4603 32.4586 83.7649 30.722 83.7649 28.593C83.7649 26.722 83.5267 25.1844 83.0505 23.9801C82.5742 22.7758 81.9208 21.8242 81.0901 21.1252C80.2594 20.4263 79.2682 19.9425 78.1163 19.6736C76.9644 19.4048 75.7018 19.2704 74.3284 19.2704C73.3316 19.2704 72.4013 19.3027 71.5374 19.3672C70.6735 19.4317 69.8982 19.507 69.2115 19.593C69.145 20.6253 69.0952 21.7059 69.062 22.8349C69.0288 23.964 69.0121 25.1091 69.0121 26.2704V31.8188C69.0121 34.1414 69.0786 36.4209 69.2115 38.6575ZM92.1214 37.0607C91.8224 36.6629 91.5842 36.2704 91.407 35.8833H91.0083C90.9419 36.507 90.8699 37.0177 90.7923 37.4156C90.7148 37.8134 90.5764 38.2597 90.377 38.7543C90.9529 39.2059 91.6673 39.6091 92.5201 39.964C93.373 40.3188 94.486 40.4962 95.8594 40.4962C97.1442 40.4962 98.2905 40.3188 99.2984 39.964C100.306 39.6091 101.159 39.1037 101.857 38.4478C102.555 37.7919 103.086 37.0231 103.452 36.1414C103.817 35.2597 104 34.3242 104 33.3349C104 32.1521 103.74 31.2059 103.219 30.4962C102.699 29.7865 102.051 29.2059 101.275 28.7543C100.5 28.3027 99.6639 27.9209 98.7668 27.6091C97.8696 27.2973 97.0334 26.9425 96.2581 26.5446C95.4828 26.1468 94.8349 25.6575 94.3144 25.0769C93.7938 24.4962 93.5335 23.7005 93.5335 22.6898C93.5335 22.1091 93.6388 21.5715 93.8492 21.0769C94.0596 20.5822 94.3587 20.1575 94.7463 19.8027C95.134 19.4478 95.5881 19.1736 96.1086 18.9801C96.6292 18.7865 97.1996 18.6898 97.8198 18.6898C98.44 18.6898 98.9717 18.7919 99.4147 18.9962C99.8577 19.2005 100.24 19.4532 100.561 19.7543C100.882 20.0554 101.137 20.3833 101.325 20.7382C101.514 21.093 101.663 21.4209 101.774 21.722H102.173C102.305 21.0984 102.438 20.5822 102.571 20.1736C102.704 19.765 102.87 19.3779 103.07 19.0123C102.405 18.4962 101.685 18.1145 100.91 17.8672C100.135 17.6199 99.2153 17.4962 98.1521 17.4962C97.0445 17.4962 96.0477 17.6468 95.1617 17.9478C94.2756 18.2489 93.5169 18.6683 92.8856 19.2059C92.2543 19.7435 91.7725 20.3833 91.4403 21.1252C91.108 21.8672 90.9419 22.6898 90.9419 23.593C90.9419 24.8618 91.2021 25.8726 91.7227 26.6252C92.2432 27.3779 92.8912 27.9962 93.6665 28.4801C94.4417 28.964 95.278 29.3672 96.1751 29.6898C97.0722 30.0123 97.9084 30.3672 98.6837 30.7543C99.459 31.1414 100.107 31.6252 100.627 32.2059C101.148 32.7865 101.408 33.5715 101.408 34.5607C101.408 35.2059 101.298 35.8134 101.076 36.3833C100.855 36.9532 100.539 37.4478 100.129 37.8672C99.7193 38.2865 99.2209 38.6199 98.6339 38.8672C98.0469 39.1145 97.3879 39.2382 96.6569 39.2382C95.948 39.2382 95.3056 39.136 94.7297 38.9317C94.1538 38.7274 93.6498 38.464 93.2179 38.1414C92.7859 37.8188 92.4204 37.4586 92.1214 37.0607Z" fill="black"/>
<path d="M31.0056 18.8768L30.8931 20.4823L31.0056 18.8768Z" fill="#656565"/>
<path d="M29.625 19.9287L31.0173 18.7661L32.4097 21.0359L29.625 19.9287Z" fill="#656565"/>
<path d="M29.625 16.4962V19.9287L31.0173 18.766L29.625 16.4962Z" fill="#787778"/>
<path d="M33.802 18.7661L32.4097 21.0359L35.1943 19.9287L33.802 18.7661Z" fill="#5C5C5C"/>
<path d="M35.1941 19.9287L33.8018 18.766L35.1941 16.4962V19.9287Z" fill="#787778"/>
<path d="M29.625 16.4962H35.1943L32.4097 21.0359L29.625 16.4962Z" fill="#4A4A4A"/>
<path d="M30.1821 6.03253L36.0856 8.4685L31.8529 11.8456L30.1821 6.03253Z" fill="#FED12F"/>
<path d="M34.6377 1.93567L37.9793 5.36817L36.0857 8.4685L34.6377 1.93567Z" fill="#FED12F"/>
<path d="M29.625 16.4961L35.7512 14.7245L35.1943 16.4961H29.625Z" fill="#FED12F"/>
<path d="M29.0684 14.7245L31.853 11.8456L29.6253 16.4961L29.0684 14.7245Z" fill="#FED12F"/>
<path d="M26.8403 5.36817L30.1819 1.93567V6.03253L26.8403 5.36817Z" fill="#FED12F"/>
<path d="M31.853 11.8456L35.7515 14.7245L36.0857 8.46851L31.853 11.8456Z" fill="#FFF3CB"/>
<path d="M31.8531 11.8457L26.5066 10.9045L29.0684 14.7245L31.8531 11.8457Z" fill="#FFF3CB"/>
<path d="M30.1821 6.03253L34.6376 1.93567L36.0856 8.4685L30.1821 6.03253Z" fill="#FFDD63"/>
<path d="M26.5063 10.9045L30.1821 6.03254L31.8529 11.8457L26.5063 10.9045Z" fill="#FFEDAC"/>
<path d="M29.6253 16.4961L31.853 11.8456L35.7516 14.7245L29.6253 16.4961Z" fill="#FFDD63"/>
<path d="M35.7512 14.7245L36.0854 8.46851L38.3131 10.9045L35.7512 14.7245Z" fill="#FFDD63"/>
<path d="M26.5064 10.9045L26.8405 5.36818L30.1821 6.03253L26.5064 10.9045Z" fill="#FFDD63"/>
<path d="M36.0858 8.46849L37.9793 5.36816L38.3135 10.9045L36.0858 8.46849Z" fill="#FEE382"/>
<path d="M34.6376 1.93567L30.1821 6.03253L30.1821 1.93567L34.6376 1.93567Z" fill="#FEF1C0"/>
</svg>
